<svg xmlns="http://www.w3.org/2000/svg" xmlns:xlink="http://www.w3.org/1999/xlink" width="65" height="65" viewBox="0 0 65 65">
  <defs>
    <filter id="category-svgrepo-com" x="0" y="0" width="65" height="65" filterUnits="userSpaceOnUse">
      <feOffset dy="3" input="SourceAlpha"/>
      <feGaussianBlur stdDeviation="2.5" result="blur"/>
      <feFlood flood-opacity="0.678"/>
      <feComposite operator="in" in2="blur"/>
      <feComposite in="SourceGraphic"/>
    </filter>
  </defs>
  <g transform="matrix(1, 0, 0, 1, 0, 0)" filter="url(#category-svgrepo-com)">
    <path id="category-svgrepo-com-2" data-name="category-svgrepo-com" d="M5.778,25.222H22.444a2.778,2.778,0,0,0,2.778-2.778V5.778A2.778,2.778,0,0,0,22.444,3H5.778A2.778,2.778,0,0,0,3,5.778V22.444A2.778,2.778,0,0,0,5.778,25.222Zm27.778,0H50.222A2.778,2.778,0,0,0,53,22.444V5.778A2.778,2.778,0,0,0,50.222,3H33.556a2.778,2.778,0,0,0-2.778,2.778V22.444A2.778,2.778,0,0,0,33.556,25.222ZM5.778,53H22.444a2.778,2.778,0,0,0,2.778-2.778V33.556a2.778,2.778,0,0,0-2.778-2.778H5.778A2.778,2.778,0,0,0,3,33.556V50.222A2.778,2.778,0,0,0,5.778,53Zm36.111,0A11.111,11.111,0,1,0,30.778,41.889,11.122,11.122,0,0,0,41.889,53Z" transform="translate(4.5 1.5)" fill="#89ca9e"/>
  </g>
</svg>
