<svg id="linkedin-svgrepo-com" xmlns="http://www.w3.org/2000/svg" xmlns:xlink="http://www.w3.org/1999/xlink" width="75" height="75" viewBox="0 0 75 75">
  <defs>
    <filter id="Path_604" x="12.108" y="12.761" width="53.147" height="50.75" filterUnits="userSpaceOnUse">
      <feOffset dy="3" input="SourceAlpha"/>
      <feGaussianBlur stdDeviation="3" result="blur"/>
      <feFlood flood-opacity="0.349"/>
      <feComposite operator="in" in2="blur"/>
      <feComposite in="SourceGraphic"/>
    </filter>
  </defs>
  <path id="Path_603" data-name="Path 603" d="M37.5,0A37.5,37.5,0,1,1,0,37.5,37.5,37.5,0,0,1,37.5,0Z" fill="#89ca9e"/>
  <g transform="matrix(1, 0, 0, 1, 0, 0)" filter="url(#Path_604)">
    <path id="Path_604-2" data-name="Path 604" d="M81.971,105.58h7.017V82.193H81.971Zm27.336-24.2a10.532,10.532,0,0,0-8.614,3.989V82.116H93.65v23.464h7.042V92.892a5.57,5.57,0,0,1,5.534-5.3c3.077,0,3.836,2.616,3.836,5.232v12.752h7.017V92.3C117.08,83.083,112.714,81.383,109.307,81.383Zm-23.86-1.527a3.513,3.513,0,1,0-3.513-3.513A3.514,3.514,0,0,0,85.446,79.856Z" transform="translate(-60.83 -54.07)" fill="#fff"/>
  </g>
</svg>
