<svg id="snapchat-svgrepo-com" xmlns="http://www.w3.org/2000/svg" xmlns:xlink="http://www.w3.org/1999/xlink" width="75" height="75" viewBox="0 0 75 75">
  <defs>
    <filter id="Path_602" x="6.274" y="10.57" width="63.109" height="60.154" filterUnits="userSpaceOnUse">
      <feOffset dy="3" input="SourceAlpha"/>
      <feGaussianBlur stdDeviation="3" result="blur"/>
      <feFlood flood-opacity="0.349"/>
      <feComposite operator="in" in2="blur"/>
      <feComposite in="SourceGraphic"/>
    </filter>
  </defs>
  <path id="Path_606" data-name="Path 606" d="M37.5,0A37.5,37.5,0,1,1,0,37.5,37.5,37.5,0,0,1,37.5,0Z" transform="translate(0 0)" fill="#89ca9e"/>
  <g transform="matrix(1, 0, 0, 1, 0, 0)" filter="url(#Path_602)">
    <path id="Path_602-2" data-name="Path 602" d="M279.108,272.809a12.014,12.014,0,0,1,11.144,7.183c1,2.247.758,6.055.564,9.113l-.009.115c-.026.335-.044.652-.053.961a1.427,1.427,0,0,0,.758.167,5.256,5.256,0,0,0,1.938-.564,1.83,1.83,0,0,1,.872-.194,2.586,2.586,0,0,1,.96.167,1.792,1.792,0,0,1,1.383,1.578c.026.846-.731,1.578-2.282,2.194-.167.053-.4.141-.643.22-.846.256-2.141.679-2.5,1.525a1.96,1.96,0,0,0,.229,1.63l.026.026c.115.256,2.872,6.531,9,7.544a.947.947,0,0,1,.793.961,1.041,1.041,0,0,1-.088.423c-.449,1.066-2.4,1.86-5.911,2.388a4.592,4.592,0,0,0-.308,1.075,7.142,7.142,0,0,1-.255,1.04.98.98,0,0,1-1.04.758h-.053a6.188,6.188,0,0,1-1.013-.141,11.334,11.334,0,0,0-2.4-.256,8.858,8.858,0,0,0-1.718.141,8.382,8.382,0,0,0-3.242,1.666c-1.6,1.128-3.436,2.424-6.193,2.424-.115,0-.22-.026-.335-.026h-.282a10.009,10.009,0,0,1-6.167-2.424,8.379,8.379,0,0,0-3.207-1.666,11.927,11.927,0,0,0-1.744-.141,11.635,11.635,0,0,0-2.387.282,5.518,5.518,0,0,1-1.013.141,1.039,1.039,0,0,1-1.092-.793c-.115-.361-.167-.731-.255-1.066a5.233,5.233,0,0,0-.308-1.075c-3.6-.414-5.541-1.207-5.991-2.309a1.109,1.109,0,0,1-.106-.423.939.939,0,0,1,.793-.961c6.132-1.013,8.889-7.3,9-7.562l.026-.053a1.864,1.864,0,0,0,.22-1.63c-.37-.82-1.665-1.234-2.5-1.525a4.72,4.72,0,0,1-.652-.22c-2.079-.82-2.361-1.745-2.246-2.4a2.221,2.221,0,0,1,2.194-1.489,1.852,1.852,0,0,1,.722.141,5.2,5.2,0,0,0,2.079.564,1.829,1.829,0,0,0,.872-.194l-.088-1.066c-.185-3.058-.423-6.866.573-9.1a11.819,11.819,0,0,1,11.039-7.139L279,272.8Z" transform="translate(-240.91 -256.23)" fill="#fff"/>
  </g>
</svg>
