<svg id="twitter-svgrepo-com" xmlns="http://www.w3.org/2000/svg" xmlns:xlink="http://www.w3.org/1999/xlink" width="75" height="75" viewBox="0 0 75 75">
  <defs>
    <filter id="Path_601" x="7.425" y="14.364" width="60.79" height="52.567" filterUnits="userSpaceOnUse">
      <feOffset dy="3" input="SourceAlpha"/>
      <feGaussianBlur stdDeviation="3" result="blur"/>
      <feFlood flood-opacity="0.349"/>
      <feComposite operator="in" in2="blur"/>
      <feComposite in="SourceGraphic"/>
    </filter>
  </defs>
  <path id="Path_605" data-name="Path 605" d="M37.5,0A37.5,37.5,0,1,1,0,37.5,37.5,37.5,0,0,1,37.5,0Z" transform="translate(0 0)" fill="#89ca9e"/>
  <g transform="matrix(1, 0, 0, 1, 0, 0)" filter="url(#Path_601)">
    <path id="Path_601-2" data-name="Path 601" d="M67.893,38.12a17.6,17.6,0,0,1-5.042,1.373,8.76,8.76,0,0,0,3.861-4.827,17.638,17.638,0,0,1-5.575,2.117,8.8,8.8,0,0,0-15.188,5.972,8.663,8.663,0,0,0,.228,1.989,24.97,24.97,0,0,1-18.1-9.119A8.7,8.7,0,0,0,30.8,47.276a8.757,8.757,0,0,1-3.976-1.093c0,.037,0,.074,0,.111a8.745,8.745,0,0,0,7.043,8.556A8.864,8.864,0,0,1,29.9,55a8.782,8.782,0,0,0,8.2,6.06,17.808,17.808,0,0,1-13,3.613A24.94,24.94,0,0,0,38.559,68.6c16.147,0,24.978-13.3,24.978-24.83,0-.378-.009-.755-.026-1.128a17.744,17.744,0,0,0,4.381-4.517Z" transform="translate(-8.68 -13.66)" fill="#f1f2f2"/>
  </g>
</svg>
