<?xml version="1.0" encoding="utf-8"?>
<!-- Generator: Adobe Illustrator 26.3.1, SVG Export Plug-In . SVG Version: 6.00 Build 0)  -->
<svg version="1.1" id="Layer_1" xmlns="http://www.w3.org/2000/svg" xmlns:xlink="http://www.w3.org/1999/xlink" x="0px" y="0px"
	 viewBox="0 0 1584 140" style="enable-background:new 0 0 1584 140;" xml:space="preserve">
<style type="text/css">
	.st0{enable-background:new    ;}
	.st1{fill:#FFFFFF;}
</style>
<g class="st0">
	<path class="st1" d="M84.7,91.9c-1.6,0-3.2-0.1-4.8-0.4c-1.5-0.3-3-0.8-4.3-1.5c-1.3-0.7-2.5-1.7-3.6-2.9c-1.1-1.2-2-2.8-2.7-4.7
		c-1.3,0.3-2.6,0.5-3.8,0.7c-1.3,0.2-2.5,0.2-3.8,0.2c-2.5,0-4.9-0.3-7.2-1s-4.3-1.7-6-3.1c-1.7-1.4-3.1-3.1-4.1-5.2
		c-1-2.1-1.5-4.5-1.5-7.4c0-3.3,0.7-6.2,2-8.9c1.4-2.6,3.2-4.9,5.5-6.9c2.3-2,4.9-3.6,7.9-4.9c3-1.3,6.2-2.2,9.5-2.8v-6.1h10.5v32.5
		c0,1.5,0.1,2.8,0.2,3.9c0.1,1.1,0.5,2,1.1,2.8c0.6,0.7,1.4,1.3,2.6,1.6c1.1,0.4,2.7,0.5,4.7,0.5v13.4H84.7z M61,27.9H49.5V17.5H61
		V27.9z M68,55.9c-2,0.4-3.9,0.9-5.7,1.4c-1.8,0.5-3.3,1.2-4.7,1.9c-1.3,0.8-2.4,1.6-3.2,2.7c-0.8,1-1.2,2.2-1.2,3.6
		c0,1.1,0.2,2,0.7,2.6c0.5,0.7,1.1,1.2,1.9,1.6s1.7,0.6,2.7,0.7c1,0.1,2.1,0.2,3.2,0.2s2.1-0.1,3.2-0.2c1-0.1,2.1-0.3,3.1-0.6V55.9z
		 M77.9,27.9H66.3V17.5h11.6V27.9z"/>
	<path class="st1" d="M93.5,91.9H87c-1.2,0-2-0.6-2.6-1.8c-0.6-1.2-0.9-2.8-0.9-4.9c0-2.1,0.3-3.7,0.9-4.9s1.4-1.8,2.6-1.8h7
		c1.4,0,2.6-0.1,3.6-0.2s1.8-0.4,2.4-0.8c0.6-0.4,1.1-1.1,1.4-1.9c0.3-0.9,0.4-2.1,0.4-3.6V48.5h10.5v20c0,1.7,0,3.2,0.1,4.4
		c0.1,1.2,0.4,2.3,1,3.1c0.5,0.8,1.4,1.4,2.5,1.8c1.1,0.4,2.7,0.6,4.8,0.6v13.4h-2.3c-2.9,0-5.3-0.5-7.3-1.4c-2-0.9-3.5-2.3-4.5-4.3
		h-0.3c-0.9,1.2-1.8,2.1-2.9,2.8c-1.1,0.7-2.1,1.3-3.3,1.7c-1.1,0.4-2.3,0.7-3.4,0.9C95.6,91.8,94.5,91.9,93.5,91.9z M100.6,109
		H89.1V98.6h11.6V109z M117.5,109h-11.6V98.6h11.6V109z"/>
	<path class="st1" d="M127.2,91.9h-6.5c-1.2,0-2-0.6-2.6-1.8c-0.6-1.2-0.9-2.8-0.9-4.9c0-2.1,0.3-3.7,0.9-4.9s1.4-1.8,2.6-1.8h7
		c1.3,0,2.5,0,3.5-0.1s1.8-0.4,2.4-0.8c0.6-0.4,1.1-1.1,1.4-1.9c0.3-0.9,0.5-2.1,0.5-3.7V48.5H146v23.8c0,4-0.5,7.3-1.6,9.8
		c-1,2.5-2.4,4.5-4.1,6c-1.7,1.4-3.7,2.4-6,3C132.1,91.6,129.7,91.9,127.2,91.9z M146.3,26.4c-0.8-0.2-1.5-0.3-2.1-0.4
		c-0.7-0.1-1.2-0.1-1.6-0.1c-1.2,0-2.2,0.3-3,0.8c-0.8,0.5-1.2,1.4-1.2,2.6c0,1.2,0.5,2.2,1.4,2.8c0.9,0.6,2.2,0.9,3.9,0.9h4.9v5.7
		H130v-5.4h3.9l0-0.2c-0.7-0.9-1.2-1.7-1.5-2.5c-0.3-0.8-0.5-1.7-0.5-2.5c0-1.2,0.2-2.3,0.7-3.2s1.2-1.8,2.1-2.5
		c0.9-0.7,2-1.3,3.3-1.7c1.3-0.4,2.7-0.6,4.2-0.6c1.1,0,2.5,0.1,4,0.4V26.4z"/>
	<path class="st1" d="M160.8,90.7V15.9h10.5v74.8H160.8z"/>
	<path class="st1" d="M199.1,92.1c-1.9,0-4.1-0.1-6.6-0.3c-2.5-0.2-5.2-0.6-8.1-1.1l-2.7-13.6c3.7,0.5,7,0.9,9.9,1.2
		c2.9,0.3,5.6,0.4,7.9,0.4c2.3,0,4.1-0.2,5.4-0.5c1.3-0.3,2.4-0.8,3.1-1.4s1.2-1.4,1.4-2.2s0.3-1.9,0.3-3.1c0-1.5-0.2-3.5-0.7-5.9
		c-0.5-2.4-1.2-5.1-2-8c-0.8-2.9-1.8-6-2.9-9.2c-1.1-3.2-2.2-6.4-3.4-9.5h12.4c1.9,5.5,3.4,10.6,4.7,15.3c1.2,4.7,2.4,9.1,3.3,13.3
		c0.3,1.3,0.6,2.6,0.9,3.8c0.3,1.3,0.8,2.4,1.5,3.5c0.6,1,1.5,1.9,2.6,2.5c1.1,0.7,2.5,1,4.3,1v13.4h-1.5c-1,0-2-0.1-3-0.3
		c-1-0.2-1.9-0.6-2.8-1.1c-0.9-0.5-1.7-1.2-2.5-2c-0.8-0.9-1.5-1.9-2.1-3.2h-0.2c-1.1,1.3-2.3,2.5-3.7,3.3c-1.4,0.9-3,1.6-4.6,2.1
		c-1.7,0.5-3.4,0.9-5.3,1.1C202.9,92,201,92.1,199.1,92.1z M209.3,28.7h-11.6V18.3h11.6V28.7z"/>
	<path class="st1" d="M286,91.9c-4.5,0-8.6-0.6-12.5-1.8s-7.3-3-10.3-5.3H263c-3.4,2.2-7.2,3.9-11.5,5.2c-4.3,1.3-9.2,1.9-14.9,1.9
		h-4.5c-1.2,0-2-0.6-2.6-1.8c-0.6-1.2-0.9-2.8-0.9-4.9c0-2.1,0.3-3.7,0.9-4.9c0.6-1.2,1.4-1.8,2.6-1.8h5c3.2,0,6-0.2,8.5-0.6
		c2.5-0.4,4.8-0.9,6.9-1.6c-1.4-1.3-2.8-2.6-4.1-3.9c-1.3-1.3-2.5-2.6-3.7-4c-1.2-1.4-2.4-2.9-3.5-4.4c-1.2-1.5-2.3-3.1-3.5-4.8
		V46.5c1.6-0.3,3.4-0.6,5.4-1c2-0.3,4.1-0.7,6.2-1c2.1-0.3,4.2-0.6,6.4-0.8c2.1-0.2,4.2-0.3,6.1-0.3c1.3,0,2.7,0.1,4.2,0.2
		c1.5,0.1,2.9,0.4,4.3,0.7c1.4,0.3,2.8,0.8,4,1.4c1.3,0.6,2.4,1.4,3.4,2.3c1,1,1.7,2.1,2.3,3.5c0.6,1.3,0.9,2.9,0.9,4.7
		c0,1.3-0.2,2.8-0.5,4.4s-0.8,3.2-1.4,5c-0.6,1.7-1.4,3.4-2.3,5.2c-0.9,1.7-1.9,3.4-3.1,5c2.3,0.9,4.7,1.6,7.2,2
		c2.5,0.4,5.4,0.7,8.5,0.7v13.4H286z M263.4,70.4c1.1-0.9,2.1-1.9,2.9-2.9c0.9-1.1,1.6-2.1,2.2-3.1c0.6-1,1.1-2,1.4-2.9
		c0.3-0.9,0.5-1.6,0.5-2.2c0-1.3-0.8-2.3-2.3-2.8c-1.5-0.5-3.6-0.8-6.4-0.8c-1.9,0-3.9,0.1-6,0.3c-2.2,0.2-4.2,0.5-6,0.9v0.4
		c1.9,2.6,4,4.9,6.2,7.1c2.2,2.1,4.7,4.1,7.3,6H263.4z M265.7,35.6h-11.6V25.2h11.6V35.6z"/>
	<path class="st1" d="M295.4,91.9h-6c-1.2,0-2-0.6-2.6-1.8c-0.6-1.2-0.9-2.8-0.9-4.9c0-2.1,0.3-3.7,0.9-4.9s1.4-1.8,2.6-1.8h6.5
		c1.3,0,2.5,0,3.5-0.1c1-0.1,1.9-0.4,2.6-0.8c0.7-0.4,1.2-1.1,1.6-1.9c0.4-0.9,0.5-2.1,0.5-3.7v-56h10.5v56.4c0,4-0.5,7.3-1.6,9.8
		c-1.1,2.5-2.5,4.5-4.3,6c-1.8,1.4-3.8,2.4-6.2,3C300.3,91.6,297.9,91.9,295.4,91.9z"/>
	<path class="st1" d="M329.5,90.7V15.9H340v74.8H329.5z"/>
	<path class="st1" d="M450.1,48.5h10.5v23.1c0,3.2-0.5,5.9-1.4,8.2c-0.9,2.3-2.2,4.2-3.8,5.7c-1.6,1.5-3.6,2.7-5.9,3.6
		c-2.3,0.9-4.9,1.6-7.8,2.1s-5.9,0.8-9.2,0.9c-3.3,0.1-6.7,0.2-10.4,0.2c-3.8,0-7.4,0-10.8-0.1c-3.4-0.1-6.4-0.3-9.3-0.6
		c-2.8-0.3-5.4-0.9-7.6-1.6c-2.3-0.7-4.2-1.7-5.8-3c-1.2-0.9-2.2-2-3-3.2c-0.8-1.2-1.5-2.5-1.9-3.9s-0.8-2.8-1.1-4.3
		c-0.2-1.5-0.3-3-0.3-4.4c0-2.3,0.2-4.6,0.5-6.8c0.3-2.2,0.8-4.4,1.4-6.6h10.6c-0.3,1.2-0.5,2.3-0.7,3.3c-0.2,1-0.4,1.9-0.5,2.7
		c-0.1,0.8-0.2,1.7-0.3,2.4c-0.1,0.8-0.1,1.6-0.1,2.4c0,1.4,0.2,2.7,0.5,3.9c0.3,1.2,1.1,2.3,2.4,3.2c1,0.8,2.2,1.3,3.7,1.8
		s3.4,0.7,5.6,1c2.3,0.2,5,0.4,8.1,0.4c3.1,0,6.8,0.1,11.1,0.1c5.1,0,9.3-0.1,12.6-0.2c3.3-0.1,5.9-0.4,7.8-0.9
		c1.9-0.5,3.2-1.3,3.9-2.3c0.7-1.1,1.1-2.5,1.1-4.4V48.5z M420.1,38.6h-11.6V28.2h11.6V38.6z M436.9,38.6h-11.6V28.2h11.6V38.6z"/>
	<path class="st1" d="M492.1,91.9c-3.4,0-6.1-0.5-8.3-1.6s-3.9-2.6-5.1-4.4c-1.3-1.9-2.1-4-2.6-6.5c-0.5-2.5-0.7-5.1-0.7-7.9V15.9
		h10.5v52.6c0,1.8,0.1,3.4,0.2,4.7c0.2,1.3,0.5,2.3,1.1,3.1c0.6,0.8,1.4,1.4,2.5,1.7c1.1,0.3,2.6,0.5,4.6,0.5v13.4H492.1z"/>
	<path class="st1" d="M534.6,64.7c-1.4-0.9-2.9-1.6-4.2-2.3c-1.4-0.6-2.8-1.1-4.3-1.5s-3-0.7-4.7-0.9c-1.7-0.2-3.5-0.3-5.5-0.3
		c-2.4,0-4.6,0.1-6.7,0.4c-2.1,0.3-4.2,0.7-6.4,1.3V49c2.4-0.7,4.6-1.2,6.7-1.5c2.1-0.4,4.4-0.5,6.9-0.5c2.6,0,4.9,0.2,6.9,0.7
		c2,0.5,3.9,1.1,5.6,1.8c1.7,0.7,3.3,1.5,4.9,2.4c1.5,0.9,3.1,1.7,4.8,2.5c0.8,0.4,1.7,0.7,2.6,1c0.9,0.3,1.9,0.5,2.9,0.7
		c1.1,0.2,2.2,0.4,3.5,0.5c1.3,0.1,2.7,0.2,4.3,0.3l-2.4,14.4c-1.3,0.3-2.7,0.9-4.2,1.7c-1.5,0.8-3.1,1.8-4.8,2.8
		c0.1,0.6,0.3,1.1,0.6,1.5c0.3,0.4,0.6,0.6,1.1,0.8c0.5,0.2,1.1,0.3,1.8,0.3c0.8,0,1.7,0.1,2.9,0.1h6.5v13.4h-3.2
		c-2.9,0-5.4-0.3-7.3-0.9c-1.9-0.6-3.5-1.4-4.8-2.4c-1.2-1-2.2-2.3-2.8-3.7c-0.7-1.4-1.2-3.1-1.5-4.8c-2.3,1.4-4.7,2.8-7.4,4.2
		c-2.6,1.4-5.5,2.7-8.6,3.8c-3.1,1.1-6.4,2.1-10,2.8c-3.6,0.7-7.4,1.1-11.5,1.1h-2.1c-1.2,0-2-0.6-2.6-1.8c-0.6-1.2-0.9-2.8-0.9-4.9
		c0-2.1,0.3-3.7,0.9-4.9s1.4-1.8,2.6-1.8h2.6c3.8,0,7.5-0.4,10.9-1.2c3.4-0.8,6.7-1.8,9.8-3.1c3.1-1.3,6-2.7,8.9-4.3
		c2.8-1.6,5.5-3.2,8.2-4.9V64.7z M529.6,109h-11.6V98.6h11.6V109z"/>
	<path class="st1" d="M559.9,91.9h-6.5c-1.2,0-2-0.6-2.6-1.8c-0.6-1.2-0.9-2.8-0.9-4.9c0-2.1,0.3-3.7,0.9-4.9s1.4-1.8,2.6-1.8h7
		c1.4,0,2.6-0.1,3.6-0.2s1.8-0.4,2.4-0.8c0.6-0.4,1.1-1.1,1.4-1.9c0.3-0.9,0.4-2.1,0.4-3.6V48.5h10.5v20c0,1.7,0,3.2,0.1,4.4
		c0.1,1.2,0.4,2.3,1,3.1c0.5,0.8,1.4,1.4,2.5,1.8c1.1,0.4,2.7,0.6,4.8,0.6v13.4h-2.3c-2.9,0-5.3-0.5-7.3-1.4c-2-0.9-3.5-2.3-4.5-4.3
		h-0.3c-0.9,1.2-1.8,2.1-2.9,2.8c-1.1,0.7-2.1,1.3-3.3,1.7c-1.1,0.4-2.3,0.7-3.4,0.9C562,91.8,560.9,91.9,559.9,91.9z M570.8,38.6
		h-11.6V28.2h11.6V38.6z M587.7,38.6h-11.6V28.2h11.6V38.6z"/>
	<path class="st1" d="M593.6,91.9h-6.5c-1.2,0-2-0.6-2.6-1.8c-0.6-1.2-0.9-2.8-0.9-4.9c0-2.1,0.3-3.7,0.9-4.9s1.4-1.8,2.6-1.8h7
		c1.4,0,2.6-0.1,3.6-0.2s1.8-0.4,2.4-0.8c0.6-0.4,1.1-1.1,1.4-1.9c0.3-0.9,0.4-2.1,0.4-3.6V48.5h10.5v20c0,1.7,0,3.2,0.1,4.4
		c0.1,1.2,0.4,2.3,1,3.1c0.5,0.8,1.4,1.4,2.5,1.8c1.1,0.4,2.7,0.6,4.8,0.6v13.4h-2.3c-2.9,0-5.3-0.5-7.3-1.4c-2-0.9-3.5-2.3-4.5-4.3
		h-0.3c-0.9,1.2-1.8,2.1-2.9,2.8c-1.1,0.7-2.1,1.3-3.3,1.7c-1.1,0.4-2.3,0.7-3.4,0.9C595.7,91.8,594.6,91.9,593.6,91.9z M613,38.6
		h-11.6V28.2H613V38.6z"/>
	<path class="st1" d="M679.9,78.5v13.4h-1.4c-2.5,0-4.7-0.4-6.5-1.3c-1.8-0.8-3.4-2.3-4.7-4.4h-0.3c-1.6,1.8-3.6,3.2-5.9,4.1
		c-2.3,1-4.9,1.5-7.9,1.5c-1.7,0-3.4-0.2-5-0.5c-1.6-0.3-3.1-0.8-4.5-1.5c-1.4-0.6-2.8-1.3-4-2.2c-1.3-0.8-2.4-1.7-3.4-2.7
		c-1.9,2.5-4.1,4.3-6.7,5.3s-5.3,1.5-8.3,1.5h-0.3c-1.2,0-2-0.6-2.6-1.8c-0.6-1.2-0.9-2.8-0.9-4.9c0-2.1,0.3-3.7,0.9-4.9
		s1.4-1.8,2.6-1.8h0.7c2.1,0,3.8-0.4,5.1-1.1c1.3-0.7,2.5-1.7,3.4-2.8c0.9-1.2,1.7-2.4,2.3-3.8c0.6-1.4,1.2-2.8,1.8-4.1
		c0.9-2,1.9-3.8,2.9-5.6c1.1-1.7,2.3-3.3,3.7-4.6c1.4-1.3,3.1-2.3,4.9-3.1c1.9-0.8,4.1-1.1,6.6-1.1c1.8,0,3.4,0.2,4.9,0.7
		c1.5,0.4,2.9,1,4.2,1.8c1.3,0.8,2.4,1.6,3.4,2.6s1.8,2,2.6,3.1c0.7,1.2,1.3,2.3,1.8,3.4c0.5,1.1,0.9,2.1,1.2,3.2
		c0.3,1,0.5,2,0.7,2.9c0.2,0.9,0.3,1.7,0.4,2.5c0.1,0.8,0.2,1.6,0.4,2.3c0.2,0.7,0.6,1.4,1.1,2c0.6,0.6,1.4,1.1,2.4,1.4
		C676.5,78.3,678,78.5,679.9,78.5z M651.8,65.4c-1.3,0-2.5,0.2-3.6,0.7c-1.1,0.5-2,1.1-2.8,2c-0.8,0.8-1.6,1.8-2.2,3
		c-0.7,1.2-1.2,2.4-1.8,3.8c0.7,0.6,1.4,1.1,2.2,1.6c0.8,0.5,1.7,0.8,2.6,1.2c1,0.3,2,0.5,3.2,0.7c1.2,0.1,2.5,0.2,3.9,0.2
		c0.9,0,1.8,0,2.7-0.1c0.9-0.1,1.7-0.3,2.4-0.5s1.3-0.7,1.7-1.2c0.4-0.5,0.6-1.2,0.6-2c0-0.6-0.1-1.5-0.4-2.5
		c-0.3-1.1-0.8-2.1-1.5-3.1c-0.7-1-1.6-1.9-2.8-2.6C655,65.8,653.5,65.4,651.8,65.4z"/>
	<path class="st1" d="M686.4,91.9h-6.5c-1.2,0-2-0.6-2.6-1.8c-0.6-1.2-0.9-2.8-0.9-4.9c0-2.1,0.3-3.7,0.9-4.9s1.4-1.8,2.6-1.8h7
		c1.4,0,2.6-0.1,3.6-0.2s1.8-0.4,2.4-0.8c0.6-0.4,1.1-1.1,1.4-1.9c0.3-0.9,0.4-2.1,0.4-3.6v-56h10.5v52.6c0,1.7,0,3.2,0.1,4.4
		c0.1,1.2,0.4,2.3,1,3.1c0.5,0.8,1.4,1.4,2.5,1.8c1.1,0.4,2.7,0.6,4.8,0.6v13.4h-2.3c-2.9,0-5.3-0.5-7.3-1.4c-2-0.9-3.5-2.3-4.5-4.3
		h-0.3c-0.9,1.2-1.8,2.1-2.9,2.8c-1.1,0.7-2.1,1.3-3.3,1.7c-1.1,0.4-2.3,0.7-3.4,0.9C688.5,91.8,687.4,91.9,686.4,91.9z"/>
	<path class="st1" d="M719.6,91.9h-6c-1.2,0-2-0.6-2.6-1.8c-0.6-1.2-0.9-2.8-0.9-4.9c0-2.1,0.3-3.7,0.9-4.9s1.4-1.8,2.6-1.8h6.5
		c1.3,0,2.5,0,3.5-0.1c1-0.1,1.9-0.4,2.6-0.8c0.7-0.4,1.2-1.1,1.6-1.9c0.4-0.9,0.5-2.1,0.5-3.7v-56h10.5v56.4c0,4-0.5,7.3-1.6,9.8
		c-1.1,2.5-2.5,4.5-4.3,6c-1.8,1.4-3.8,2.4-6.2,3C724.5,91.6,722.1,91.9,719.6,91.9z"/>
	<path class="st1" d="M823.5,91.9c-1.6,0-3.2-0.1-4.8-0.4c-1.5-0.3-3-0.8-4.3-1.5c-1.3-0.7-2.5-1.7-3.6-2.9c-1.1-1.2-2-2.8-2.7-4.7
		c-1.3,0.3-2.6,0.5-3.8,0.7c-1.3,0.2-2.5,0.2-3.8,0.2c-2.5,0-4.9-0.3-7.2-1c-2.3-0.7-4.3-1.7-6-3.1c-1.7-1.4-3.1-3.1-4.1-5.2
		c-1-2.1-1.5-4.5-1.5-7.4c0-3.3,0.7-6.2,2-8.9c1.4-2.6,3.2-4.9,5.5-6.9c2.3-2,4.9-3.6,7.9-4.9c3-1.3,6.2-2.2,9.5-2.8v-6.1h10.5v32.5
		c0,1.5,0.1,2.8,0.2,3.9c0.1,1.1,0.5,2,1.1,2.8c0.6,0.7,1.4,1.3,2.6,1.6c1.1,0.4,2.7,0.5,4.7,0.5v13.4H823.5z M799.9,27.9h-11.6
		V17.5h11.6V27.9z M806.8,55.9c-2,0.4-3.9,0.9-5.7,1.4c-1.8,0.5-3.3,1.2-4.7,1.9c-1.3,0.8-2.4,1.6-3.2,2.7c-0.8,1-1.2,2.2-1.2,3.6
		c0,1.1,0.2,2,0.7,2.6c0.5,0.7,1.1,1.2,1.9,1.6s1.7,0.6,2.7,0.7c1,0.1,2.1,0.2,3.2,0.2s2.1-0.1,3.2-0.2c1-0.1,2.1-0.3,3.1-0.6V55.9z
		 M816.7,27.9h-11.6V17.5h11.6V27.9z"/>
	<path class="st1" d="M832.3,91.9h-6.5c-1.2,0-2-0.6-2.6-1.8c-0.6-1.2-0.9-2.8-0.9-4.9c0-2.1,0.3-3.7,0.9-4.9s1.4-1.8,2.6-1.8h7
		c1.4,0,2.6-0.1,3.6-0.2s1.8-0.4,2.4-0.8c0.6-0.4,1.1-1.1,1.4-1.9c0.3-0.9,0.4-2.1,0.4-3.6V48.5h10.5v20c0,1.7,0,3.2,0.1,4.4
		c0.1,1.2,0.4,2.3,1,3.1c0.5,0.8,1.4,1.4,2.5,1.8c1.1,0.4,2.7,0.6,4.8,0.6v13.4h-2.3c-2.9,0-5.3-0.5-7.3-1.4c-2-0.9-3.5-2.3-4.5-4.3
		h-0.3c-0.9,1.2-1.8,2.1-2.9,2.8c-1.1,0.7-2.1,1.3-3.3,1.7c-1.1,0.4-2.3,0.7-3.4,0.9C834.4,91.8,833.3,91.9,832.3,91.9z M839.5,109
		h-11.6V98.6h11.6V109z M856.3,109h-11.6V98.6h11.6V109z"/>
	<path class="st1" d="M918.6,78.5v13.4h-1.4c-2.5,0-4.7-0.4-6.5-1.3c-1.8-0.8-3.4-2.3-4.7-4.4h-0.3c-1.6,1.8-3.6,3.2-5.9,4.1
		c-2.3,1-4.9,1.5-7.9,1.5c-1.7,0-3.4-0.2-5-0.5c-1.6-0.3-3.1-0.8-4.5-1.5c-1.4-0.6-2.8-1.3-4-2.2c-1.3-0.8-2.4-1.7-3.4-2.7
		c-1.9,2.5-4.1,4.3-6.7,5.3s-5.3,1.5-8.3,1.5h-0.3c-1.2,0-2-0.6-2.6-1.8c-0.6-1.2-0.9-2.8-0.9-4.9c0-2.1,0.3-3.7,0.9-4.9
		s1.4-1.8,2.6-1.8h0.7c2.1,0,3.8-0.4,5.1-1.1c1.3-0.7,2.5-1.7,3.4-2.8c0.9-1.2,1.7-2.4,2.3-3.8c0.6-1.4,1.2-2.8,1.8-4.1
		c0.9-2,1.9-3.8,2.9-5.6c1.1-1.7,2.3-3.3,3.7-4.6c1.4-1.3,3.1-2.3,4.9-3.1c1.9-0.8,4.1-1.1,6.6-1.1c1.8,0,3.4,0.2,4.9,0.7
		c1.5,0.4,2.9,1,4.2,1.8c1.3,0.8,2.4,1.6,3.4,2.6s1.8,2,2.6,3.1c0.7,1.2,1.3,2.3,1.8,3.4c0.5,1.1,0.9,2.1,1.2,3.2
		c0.3,1,0.5,2,0.7,2.9c0.2,0.9,0.3,1.7,0.4,2.5c0.1,0.8,0.2,1.6,0.4,2.3c0.2,0.7,0.6,1.4,1.1,2c0.6,0.6,1.4,1.1,2.4,1.4
		C915.2,78.3,916.7,78.5,918.6,78.5z M890.5,65.4c-1.3,0-2.5,0.2-3.6,0.7c-1.1,0.5-2,1.1-2.8,2c-0.8,0.8-1.6,1.8-2.2,3
		c-0.7,1.2-1.2,2.4-1.8,3.8c0.7,0.6,1.4,1.1,2.2,1.6c0.8,0.5,1.7,0.8,2.6,1.2c1,0.3,2,0.5,3.2,0.7c1.2,0.1,2.5,0.2,3.9,0.2
		c0.9,0,1.8,0,2.7-0.1c0.9-0.1,1.7-0.3,2.4-0.5s1.3-0.7,1.7-1.2c0.4-0.5,0.6-1.2,0.6-2c0-0.6-0.1-1.5-0.4-2.5
		c-0.3-1.1-0.8-2.1-1.5-3.1c-0.7-1-1.6-1.9-2.8-2.6C893.6,65.8,892.2,65.4,890.5,65.4z"/>
	<path class="st1" d="M924.6,91.9h-6c-1.2,0-2-0.6-2.6-1.8c-0.6-1.2-0.9-2.8-0.9-4.9c0-2.1,0.3-3.7,0.9-4.9s1.4-1.8,2.6-1.8h6.5
		c1.3,0,2.5,0,3.5-0.1c1-0.1,1.9-0.4,2.6-0.8c0.7-0.4,1.2-1.1,1.6-1.9c0.4-0.9,0.5-2.1,0.5-3.7v-56h10.5v56.4c0,4-0.5,7.3-1.6,9.8
		c-1.1,2.5-2.5,4.5-4.3,6c-1.8,1.4-3.8,2.4-6.2,3C929.4,91.6,927,91.9,924.6,91.9z"/>
	<path class="st1" d="M975.4,91.9c-3.4,0-6.1-0.5-8.3-1.6s-3.9-2.6-5.1-4.4c-1.3-1.9-2.1-4-2.6-6.5c-0.5-2.5-0.7-5.1-0.7-7.9V15.9
		h10.5v52.6c0,1.8,0.1,3.4,0.2,4.7c0.2,1.3,0.5,2.3,1.1,3.1c0.6,0.8,1.4,1.4,2.5,1.7c1.1,0.3,2.6,0.5,4.6,0.5v13.4H975.4z"/>
	<path class="st1" d="M1033.3,91.9c-4.5,0-8.6-0.6-12.5-1.8s-7.3-3-10.3-5.3h-0.3c-3.4,2.2-7.2,3.9-11.5,5.2
		c-4.3,1.3-9.2,1.9-14.9,1.9h-4.5c-1.2,0-2-0.6-2.6-1.8c-0.6-1.2-0.9-2.8-0.9-4.9c0-2.1,0.3-3.7,0.9-4.9s1.4-1.8,2.6-1.8h5
		c3.2,0,6-0.2,8.5-0.6c2.5-0.4,4.8-0.9,6.9-1.6c-1.4-1.3-2.8-2.6-4.1-3.9c-1.3-1.3-2.5-2.6-3.7-4c-1.2-1.4-2.4-2.9-3.5-4.4
		c-1.2-1.5-2.3-3.1-3.5-4.8V46.5c1.6-0.3,3.4-0.6,5.4-1c2-0.3,4.1-0.7,6.2-1c2.1-0.3,4.2-0.6,6.4-0.8s4.2-0.3,6.1-0.3
		c1.3,0,2.7,0.1,4.2,0.2c1.5,0.1,2.9,0.4,4.3,0.7c1.4,0.3,2.8,0.8,4,1.4c1.3,0.6,2.4,1.4,3.4,2.3c1,1,1.7,2.1,2.3,3.5
		c0.6,1.3,0.9,2.9,0.9,4.7c0,1.3-0.2,2.8-0.5,4.4s-0.8,3.2-1.4,5c-0.6,1.7-1.4,3.4-2.3,5.2c-0.9,1.7-1.9,3.4-3.1,5
		c2.3,0.9,4.7,1.6,7.2,2c2.5,0.4,5.3,0.7,8.5,0.7v13.4H1033.3z M1010.7,70.4c1.1-0.9,2.1-1.9,2.9-2.9c0.9-1.1,1.6-2.1,2.2-3.1
		c0.6-1,1.1-2,1.4-2.9s0.5-1.6,0.5-2.2c0-1.3-0.8-2.3-2.3-2.8c-1.5-0.5-3.6-0.8-6.4-0.8c-1.9,0-3.9,0.1-6,0.3
		c-2.2,0.2-4.2,0.5-6,0.9v0.4c1.9,2.6,4,4.9,6.2,7.1c2.2,2.1,4.7,4.1,7.3,6H1010.7z"/>
	<path class="st1" d="M1042.6,91.9h-6c-1.2,0-2-0.6-2.6-1.8c-0.6-1.2-0.9-2.8-0.9-4.9c0-2.1,0.3-3.7,0.9-4.9s1.4-1.8,2.6-1.8h6.5
		c1.3,0,2.5,0,3.5-0.1c1-0.1,1.9-0.4,2.6-0.8c0.7-0.4,1.2-1.1,1.6-1.9c0.4-0.9,0.5-2.1,0.5-3.7v-56h10.5v56.4c0,4-0.5,7.3-1.6,9.8
		c-1.1,2.5-2.5,4.5-4.3,6c-1.8,1.4-3.8,2.4-6.2,3C1047.5,91.6,1045.1,91.9,1042.6,91.9z"/>
	<path class="st1" d="M1076.7,90.7V15.9h10.5v74.8H1076.7z"/>
	<path class="st1" d="M1136.7,45.3l7-8.9c4.1,2.8,7.6,5.8,10.6,8.8c2.9,3.1,5.4,6.2,7.2,9.3c1.9,3.1,3.3,6.3,4.1,9.4
		c0.9,3.2,1.3,6.2,1.3,9.3c0,2.8-0.4,5.3-1.3,7.6c-0.9,2.3-2.1,4.2-3.7,5.9c-1.6,1.6-3.6,2.9-5.9,3.8c-2.3,0.9-4.9,1.4-7.8,1.4
		c-2.8,0-5.3-0.4-7.5-1.2c-2.2-0.8-4.1-1.9-5.6-3.4c-1.5-1.5-2.7-3.2-3.5-5.3s-1.2-4.4-1.2-7c0-2.8,0.3-5.5,1-8.1
		c0.7-2.6,1.6-4.9,2.7-7.1c1.1-2.2,2.3-4.1,3.7-5.9s2.8-3.3,4.1-4.5c-0.8-0.7-1.7-1.4-2.6-2.1C1138.7,46.7,1137.7,46,1136.7,45.3z
		 M1146.2,28.2h-11.6V17.8h11.6V28.2z M1140.8,73.3c0,1.1,0.2,1.9,0.6,2.6c0.4,0.7,1,1.2,1.7,1.6c0.7,0.4,1.5,0.7,2.4,0.8
		c0.9,0.1,1.9,0.2,3,0.2c2.9,0,4.9-0.5,6.2-1.4c1.3-0.9,1.9-2.2,1.9-3.9c0-2.4-0.6-5-1.8-7.8c-1.2-2.8-3.1-5.8-5.6-8.9
		c-1.2,1-2.2,2.1-3.3,3.3c-1,1.3-1.9,2.6-2.7,4.1c-0.8,1.5-1.4,3-1.8,4.6C1141,70.1,1140.8,71.7,1140.8,73.3z M1163.1,28.2h-11.6
		V17.8h11.6V28.2z"/>
	<path class="st1" d="M1174.1,101.1c2.3,0.7,4.2,1.1,5.7,1.4c1.5,0.3,2.9,0.4,4.2,0.4c2.7,0,4.8-0.5,6.5-1.4c1.7-0.9,3-2.2,3.9-3.8
		c1-1.6,1.6-3.4,1.9-5.5c0.3-2.1,0.5-4.3,0.5-6.6c0-2.2-0.1-4.4-0.4-6.6s-0.7-4.5-1.3-6.8c-0.6-2.4-1.3-4.9-2.2-7.5
		c-0.9-2.6-1.9-5.5-3-8.6h11.6c1,2.5,1.9,5.1,2.7,7.7c0.8,2.6,1.4,5.2,1.9,7.8c0.5,2.6,0.9,5.1,1.2,7.6c0.3,2.5,0.4,4.9,0.4,7.2
		c0,5.2-0.6,9.7-1.9,13.5c-1.3,3.8-3,6.9-5.1,9.3c-2.2,2.4-4.6,4.3-7.5,5.4c-2.8,1.2-5.8,1.8-9,1.8c-1.6,0-3.2-0.2-4.8-0.5
		c-1.6-0.3-3.4-0.8-5.5-1.6V101.1z"/>
	<path class="st1" d="M1235.6,92.1c-1.9,0-4.1-0.1-6.6-0.3c-2.5-0.2-5.2-0.6-8.1-1.1l-2.7-13.6c3.7,0.5,7,0.9,9.9,1.2
		c2.9,0.3,5.6,0.4,7.9,0.4c2.3,0,4.1-0.2,5.4-0.5c1.3-0.3,2.4-0.8,3.1-1.4s1.2-1.4,1.4-2.2s0.3-1.9,0.3-3.1c0-1.5-0.2-3.5-0.7-5.9
		c-0.5-2.4-1.2-5.1-2-8c-0.8-2.9-1.8-6-2.9-9.2c-1.1-3.2-2.2-6.4-3.4-9.5h12.4c1.9,5.5,3.4,10.6,4.7,15.3c1.2,4.7,2.3,9.1,3.3,13.3
		c0.3,1.3,0.6,2.6,0.9,3.8c0.3,1.3,0.8,2.4,1.5,3.5c0.6,1,1.5,1.9,2.6,2.5c1.1,0.7,2.5,1,4.3,1v13.4h-1.5c-1,0-2-0.1-3-0.3
		c-1-0.2-1.9-0.6-2.8-1.1c-0.9-0.5-1.7-1.2-2.5-2c-0.8-0.9-1.5-1.9-2.1-3.2h-0.2c-1.1,1.3-2.3,2.5-3.7,3.3c-1.4,0.9-3,1.6-4.6,2.1
		c-1.7,0.5-3.4,0.9-5.3,1.1C1239.4,92,1237.5,92.1,1235.6,92.1z"/>
	<path class="st1" d="M1272.9,91.9h-6c-1.2,0-2-0.6-2.6-1.8c-0.6-1.2-0.9-2.8-0.9-4.9c0-2.1,0.3-3.7,0.9-4.9s1.4-1.8,2.6-1.8h6.5
		c1.3,0,2.5,0,3.5-0.1c1-0.1,1.9-0.4,2.6-0.8c0.7-0.4,1.2-1.1,1.6-1.9c0.4-0.9,0.5-2.1,0.5-3.7v-56h10.5v56.4c0,4-0.5,7.3-1.6,9.8
		c-1.1,2.5-2.5,4.5-4.3,6c-1.8,1.4-3.8,2.4-6.2,3C1277.8,91.6,1275.4,91.9,1272.9,91.9z"/>
	<path class="st1" d="M1307,90.7V15.9h10.5v74.8H1307z"/>
	<path class="st1" d="M1402.1,91.9c-1.6,0-3.2-0.1-4.8-0.4c-1.5-0.3-3-0.8-4.3-1.5c-1.3-0.7-2.5-1.7-3.6-2.9c-1.1-1.2-2-2.8-2.7-4.7
		c-1.3,0.3-2.6,0.5-3.8,0.7c-1.3,0.2-2.5,0.2-3.8,0.2c-2.5,0-4.9-0.3-7.2-1c-2.3-0.7-4.3-1.7-6-3.1c-1.7-1.4-3.1-3.1-4.1-5.2
		c-1-2.1-1.5-4.5-1.5-7.4c0-3.3,0.7-6.2,2-8.9c1.4-2.6,3.2-4.9,5.5-6.9c2.3-2,4.9-3.6,7.9-4.9c3-1.3,6.2-2.2,9.5-2.8v-6.1h10.5v32.5
		c0,1.5,0.1,2.8,0.2,3.9c0.1,1.1,0.5,2,1.1,2.8c0.6,0.7,1.4,1.3,2.6,1.6c1.1,0.4,2.7,0.5,4.7,0.5v13.4H1402.1z M1378.4,27.9h-11.6
		V17.5h11.6V27.9z M1385.4,55.9c-2,0.4-3.9,0.9-5.7,1.4c-1.8,0.5-3.3,1.2-4.7,1.9c-1.3,0.8-2.4,1.6-3.2,2.7c-0.8,1-1.2,2.2-1.2,3.6
		c0,1.1,0.2,2,0.7,2.6c0.5,0.7,1.1,1.2,1.9,1.6s1.7,0.6,2.7,0.7c1,0.1,2.1,0.2,3.2,0.2s2.1-0.1,3.2-0.2c1-0.1,2.1-0.3,3.1-0.6V55.9z
		 M1395.3,27.9h-11.6V17.5h11.6V27.9z"/>
	<path class="st1" d="M1404.4,36.7l43.4-27.5v14.2l-30,18.3c3.9,2,7.6,4,10.9,6.2c3.3,2.2,6.2,4.5,8.6,7c2.4,2.5,4.3,5.2,5.6,8
		c1.3,2.9,2,6,2,9.4c0,1.4-0.1,2.9-0.4,4.4c-0.3,1.5-0.7,3-1.4,4.4c-0.7,1.4-1.7,2.8-2.9,4.1c-1.2,1.3-2.8,2.4-4.8,3.4
		c-1.9,1-4.3,1.7-7,2.3c-2.7,0.6-6,0.9-9.7,0.9h-14.4c-1.2,0-2-0.6-2.6-1.8c-0.6-1.2-0.9-2.8-0.9-4.9c0-2.1,0.3-3.7,0.9-4.9
		s1.4-1.8,2.6-1.8h14.5c3,0,5.5-0.1,7.4-0.2c2-0.1,3.6-0.4,4.7-0.8c1.2-0.4,2-1,2.5-1.7c0.5-0.7,0.7-1.7,0.7-2.9
		c0-3.6-2.5-7.3-7.4-11.3c-5-3.9-12.5-8.3-22.5-13.2V36.7z"/>
	<path class="st1" d="M1494.3,73.2c-0.9,0-1.6,0-2.3,0c-0.6,0-1.2,0-1.8,0.1c0.4,2.2,0.7,4.3,0.9,6.5c0.2,2.2,0.3,4.4,0.3,6.7
		c0,5.2-0.6,9.7-1.9,13.5c-1.3,3.8-3,6.9-5.1,9.3s-4.6,4.3-7.5,5.4c-2.8,1.2-5.8,1.8-9,1.8c-1.6,0-3.2-0.2-4.8-0.5s-3.4-0.8-5.5-1.6
		v-13.4c2.3,0.7,4.2,1.1,5.7,1.4c1.5,0.3,2.9,0.4,4.2,0.4c2.7,0,4.8-0.5,6.5-1.4c1.7-0.9,3-2.2,3.9-3.8c1-1.6,1.6-3.4,1.9-5.5
		c0.3-2.1,0.5-4.2,0.5-6.5c0-1.7-0.1-3.5-0.3-5.2s-0.5-3.5-0.9-5.3s-0.9-3.8-1.5-5.9c-0.6-2.1-1.3-4.4-2.1-7c2-0.3,3.9-0.5,5.8-0.7
		s3.6-0.4,5.3-0.5c1.6-0.1,3.2-0.2,4.5-0.3c1.4-0.1,2.6-0.1,3.6-0.1c0.5,0,1.1,0.1,1.6,0.4c0.5,0.3,1,0.7,1.4,1.2
		c0.4,0.5,0.8,1.2,1,2c0.2,0.8,0.4,1.7,0.4,2.8c0,1.2-0.2,2.1-0.5,2.9c-0.3,0.8-0.7,1.4-1.2,1.8c-0.5,0.5-1,0.8-1.7,1
		C1495.4,73.1,1494.8,73.2,1494.3,73.2z"/>
	<path class="st1" d="M1503.5,73.5c-1.3-0.1-2.7-0.2-4.2-0.2c-1.4,0-3.1-0.1-5-0.1l0.7-12.4c3.2,0,6.3,0.1,9.3,0.2
		c3,0.2,6.3,0.4,9.7,0.7v7.4c0,1.5,0,2.9,0.1,4.1c0.1,1.2,0.4,2.1,0.8,2.9c0.4,0.8,1.1,1.4,2.1,1.8c1,0.4,2.3,0.6,4,0.6
		c1,0,1.9-0.1,2.9-0.2c0.9-0.1,1.7-0.4,2.4-0.8c0.7-0.4,1.3-1.1,1.7-1.9c0.4-0.9,0.7-2.1,0.7-3.6v-14h10.5v10.6c0,1.7,0,3.2,0.1,4.4
		c0.1,1.2,0.4,2.3,0.9,3.1c0.5,0.8,1.2,1.4,2.3,1.8c1,0.4,2.5,0.6,4.4,0.6c1,0,2,0,2.8-0.1c0.9-0.1,1.6-0.4,2.3-0.8
		c0.6-0.4,1.1-1.1,1.5-2c0.4-0.9,0.5-2.1,0.5-3.6V48.5h10.5v24.1c0,3.9-0.5,7.1-1.5,9.6c-1,2.5-2.3,4.5-3.9,5.9
		c-1.6,1.4-3.5,2.4-5.7,3c-2.1,0.6-4.4,0.8-6.7,0.8c-1.3,0-2.5-0.1-3.8-0.3c-1.2-0.2-2.4-0.5-3.6-0.9c-1.1-0.4-2.2-1-3.1-1.7
		c-1-0.7-1.8-1.6-2.5-2.7h-0.2c-0.9,1.1-1.9,1.9-3,2.7c-1.1,0.7-2.2,1.3-3.4,1.7c-1.2,0.4-2.3,0.7-3.5,0.9c-1.2,0.2-2.2,0.3-3.3,0.3
		c-3.4,0-6.1-0.6-8.3-1.7c-2.2-1.1-3.9-2.5-5.2-4.3c-1.3-1.8-2.2-3.8-2.7-5.9C1503.9,77.8,1503.6,75.6,1503.5,73.5z M1531.5,47
		h-11.6V36.6h11.6V47z M1540,33.2h-11.6V22.8h11.6V33.2z M1548.4,47h-11.6V36.6h11.6V47z"/>
</g>
</svg>
